<svg width="342" height="141" viewBox="0 0 342 141" fill="none" xmlns="http://www.w3.org/2000/svg">
    <path fill-rule="evenodd" clip-rule="evenodd" d="M320.819 113.268L320.819 75.1219L320.819 65.8781L320.819 27.7316C320.819 24.0957 317.863 21.1377 314.231 21.1377L314 21H276.1C276.126 21.0666 276.152 21.133 276.178 21.1993H35.2611C31.813 21.1993 28.9807 23.8492 28.6728 27.2386C28.3649 30.6281 21.2225 112.652 21.2225 112.652C20.9146 116.535 23.9317 119.862 27.8108 119.862H314.231C317.863 119.862 320.819 116.904 320.819 113.268ZM268 0H276.178H315.585C330.178 0 342 11.8322 342 26.4375V65.8781V75.1219V114.562C342 129.168 330.178 141 315.585 141H26.3946C10.9398 141 -1.25169 127.75 0.102919 112.282L7.79955 24.0957C8.96944 10.4764 20.422 0 34.0912 0H268Z" fill="white"/>
</svg>
